<svg width="1440" height="431" viewBox="0 0 1440 431" fill="none" xmlns="http://www.w3.org/2000/svg">
<g style="mix-blend-mode:overlay">
<path fill-rule="evenodd" clip-rule="evenodd" d="M1056.79 4.32288C1056.18 11.8446 1052.88 18.8403 1047.6 23.7712C1042.33 28.7019 1035.51 31.1638 1028.66 30.6153C1021.81 30.0667 1015.48 26.5526 1011.06 20.8461C1006.65 15.1395 1004.51 7.70795 1005.12 0.186216C1005.12 0.186216 1019.38 7.57207 1030.96 2.25455C1042.53 -3.06299 1056.79 4.32288 1056.79 4.32288ZM1063.87 24.2982C1062.24 27.2004 1060.35 29.8022 1058.27 31.9589C1056.99 32.9971 1055.92 33.9798 1054.91 34.8913C1049.67 39.6692 1046.57 42.4892 1028.78 41.0651C1010.22 39.5793 1008.07 36.8886 1002.81 30.3371C1002.07 29.4116 1001.27 28.4089 1000.35 27.3218C992.909 18.5393 993.158 10.3163 993.993 2.99951e-05L1001.37 0.590982C1000.18 15.2856 1005.96 22.853 1005.96 22.853C1005.96 22.853 1010.89 32.6773 1029.34 34.1547C1047.8 35.632 1053.13 26.6293 1053.13 26.6293C1053.13 26.6293 1060.31 16.6195 1061.29 4.51805L1069.03 5.13748C1070.01 4.92025 1071.02 4.81892 1072.04 4.84021C1074.62 4.8939 1077.11 5.72377 1079.15 7.20664C1081.2 8.68955 1082.68 10.7464 1083.39 13.0718C1084.1 15.3972 1083.99 17.8672 1083.08 20.1151C1082.17 22.363 1080.51 24.269 1078.34 25.55C1076.17 26.831 1073.62 27.4189 1071.05 27.2263C1068.48 27.0338 1066.04 26.0708 1064.09 24.4807C1064.02 24.4206 1063.95 24.3598 1063.87 24.2982ZM1068.77 11.4387C1069.72 10.8787 1070.83 10.591 1071.96 10.6146C1073.21 10.6406 1074.42 11.043 1075.41 11.762C1076.4 12.481 1077.12 13.4783 1077.47 14.6058C1077.81 15.7334 1077.76 16.931 1077.31 18.0209C1076.87 19.1109 1076.07 20.035 1075.02 20.6561C1073.97 21.2774 1072.73 21.5623 1071.48 21.469C1070.24 21.3756 1069.06 20.9087 1068.11 20.1377C1067.5 19.6418 1067.01 19.037 1066.67 18.3642C1067.53 16.1384 1068.24 13.8141 1068.77 11.4387ZM994.634 43.5512L1062.01 48.9452C1063.28 49.0467 1064.21 50.2901 1064.1 51.7222C1063.98 53.1544 1062.86 54.2331 1061.59 54.1315L994.214 48.7375C992.946 48.6359 992.011 47.3926 992.127 45.9604C992.243 44.5283 993.366 43.4496 994.634 43.5512ZM1059.02 239.477C1058.3 243.961 1055.98 248.003 1052.58 250.713C1049.18 253.423 1044.98 254.579 1040.89 253.928C1036.81 253.276 1033.18 250.869 1030.8 247.237C1028.42 243.605 1027.49 239.046 1028.22 234.561C1028.22 234.561 1036.42 239.665 1043.62 237.019C1050.82 234.374 1059.02 239.477 1059.02 239.477ZM1062.32 251.796C1061.2 253.46 1059.94 254.932 1058.59 256.128C1057.78 256.691 1057.08 257.23 1056.44 257.73C1053.06 260.35 1051.07 261.896 1040.47 260.203C1029.4 258.438 1028.24 256.722 1025.4 252.543C1024.99 251.953 1024.56 251.314 1024.06 250.618C1020.01 244.998 1020.56 240.076 1021.55 233.925L1025.95 234.628C1024.54 243.388 1027.64 248.201 1027.64 248.201C1027.64 248.201 1030.13 254.328 1041.13 256.083C1052.13 257.839 1055.76 252.688 1055.76 252.688C1055.76 252.688 1060.55 247.021 1061.72 239.806L1066.33 240.542C1066.93 240.458 1067.54 240.445 1068.15 240.506C1069.69 240.659 1071.15 241.274 1072.3 242.26C1073.46 243.246 1074.25 244.551 1074.56 245.979C1074.88 247.408 1074.69 248.884 1074.04 250.19C1073.39 251.496 1072.3 252.562 1070.94 253.228C1069.58 253.895 1068.02 254.127 1066.49 253.891C1064.95 253.654 1063.54 252.962 1062.44 251.916C1062.4 251.876 1062.36 251.836 1062.32 251.796ZM1065.87 244.311C1066.47 244.02 1067.15 243.899 1067.83 243.967C1068.57 244.041 1069.28 244.339 1069.84 244.817C1070.4 245.296 1070.79 245.928 1070.94 246.621C1071.09 247.313 1071 248.029 1070.68 248.662C1070.37 249.296 1069.84 249.812 1069.18 250.135C1068.52 250.459 1067.76 250.571 1067.02 250.457C1066.28 250.342 1065.59 250.006 1065.06 249.499C1064.72 249.173 1064.45 248.787 1064.28 248.367C1064.9 247.072 1065.44 245.711 1065.87 244.311ZM1019.86 260.087L1060.03 266.496C1060.78 266.617 1061.29 267.407 1061.15 268.261C1061.01 269.115 1060.28 269.709 1059.53 269.589L1019.36 263.179C1018.6 263.058 1018.1 262.268 1018.24 261.414C1018.38 260.56 1019.1 259.966 1019.86 260.087ZM653.205 74.9197C654.165 78.4824 653.797 82.2425 652.181 85.373C650.565 88.5035 647.834 90.7478 644.588 91.6123C641.343 92.4768 637.849 91.8906 634.875 89.9827C631.901 88.0748 629.691 85.0015 628.731 81.4388C628.731 81.4388 636.515 82.5147 640.968 78.1793C645.42 73.8438 653.205 74.9197 653.205 74.9197ZM659.76 82.9628C659.488 84.565 659.044 86.0722 658.443 87.4039C658.028 88.0897 657.693 88.7181 657.382 89.301C655.755 92.3563 654.794 94.1595 646.369 96.4038C637.579 98.7453 636.141 97.8581 632.642 95.698C632.147 95.3928 631.612 95.0622 631.008 94.7118C626.135 91.8806 624.893 88.0537 623.576 83.1674L627.072 82.2361C628.948 89.1963 632.855 91.7393 632.855 91.7393C632.855 91.7393 636.746 95.4589 645.487 93.1306C654.228 90.8024 655.197 85.7879 655.197 85.7879C655.197 85.7879 656.854 80.0075 655.31 74.2757L658.974 73.2995C659.389 73.0399 659.838 72.8283 660.312 72.6717C661.505 72.277 662.79 72.2527 663.976 72.6022C665.162 72.9517 666.185 73.6566 666.894 74.612C667.603 75.5675 667.96 76.7227 667.912 77.9061C667.864 79.0895 667.413 80.238 666.627 81.1811C665.84 82.1242 664.76 82.8116 663.547 83.1413C662.333 83.4711 661.051 83.4254 659.891 83.0112C659.847 82.9956 659.804 82.9795 659.76 82.9628ZM659.894 76.2432C660.24 75.8304 660.703 75.517 661.228 75.3433C661.807 75.1519 662.43 75.1401 663.005 75.3096C663.58 75.4791 664.076 75.8208 664.42 76.2841C664.764 76.7474 664.937 77.3075 664.913 77.8813C664.89 78.4551 664.671 79.012 664.29 79.4692C663.909 79.9265 663.385 80.2598 662.797 80.4197C662.208 80.5796 661.587 80.5575 661.024 80.3566C660.662 80.2275 660.337 80.0288 660.067 79.7752C660.098 78.6095 660.042 77.4234 659.894 76.2432ZM631.055 103.116L662.968 94.6151C663.569 94.4551 664.204 94.8752 664.387 95.5536C664.57 96.2319 664.231 96.9116 663.63 97.0716L631.717 105.572C631.117 105.732 630.481 105.312 630.298 104.634C630.116 103.955 630.455 103.276 631.055 103.116ZM238.904 150.77C240.652 157.254 239.981 164.097 237.04 169.794C234.1 175.491 229.129 179.576 223.223 181.149C217.316 182.723 210.958 181.656 205.545 178.184C200.133 174.711 196.111 169.118 194.363 162.634C194.363 162.634 208.53 164.592 216.633 156.702C224.736 148.812 238.904 150.77 238.904 150.77ZM250.835 165.408C250.339 168.324 249.531 171.067 248.438 173.49C247.682 174.738 247.072 175.882 246.507 176.943C243.545 182.503 241.797 185.785 226.464 189.869C210.465 194.131 207.85 192.516 201.48 188.585C200.581 188.029 199.606 187.428 198.508 186.79C189.638 181.637 187.378 174.673 184.981 165.78L191.344 164.085C194.758 176.752 201.869 181.38 201.869 181.38C201.869 181.38 208.951 188.15 224.858 183.912C240.765 179.675 242.53 170.549 242.53 170.549C242.53 170.549 245.546 160.029 242.735 149.598L249.404 147.821C250.159 147.349 250.977 146.964 251.838 146.679C254.01 145.96 256.349 145.916 258.507 146.552C260.665 147.188 262.527 148.471 263.818 150.21C265.108 151.949 265.758 154.051 265.67 156.205C265.583 158.358 264.762 160.449 263.331 162.165C261.9 163.881 259.934 165.133 257.726 165.733C255.518 166.333 253.184 166.25 251.072 165.496C250.993 165.467 250.913 165.438 250.835 165.408ZM251.078 153.178C251.707 152.427 252.55 151.857 253.506 151.541C254.559 151.192 255.693 151.171 256.739 151.479C257.786 151.788 258.689 152.41 259.315 153.253C259.94 154.096 260.255 155.115 260.213 156.16C260.17 157.204 259.773 158.217 259.079 159.05C258.385 159.882 257.432 160.488 256.361 160.779C255.29 161.07 254.159 161.03 253.135 160.665C252.476 160.43 251.884 160.068 251.394 159.606C251.449 157.485 251.347 155.326 251.078 153.178ZM198.594 202.085L256.673 186.614C257.766 186.323 258.923 187.088 259.255 188.322C259.588 189.557 258.971 190.794 257.878 191.085L199.799 206.555C198.705 206.847 197.549 206.082 197.216 204.847C196.883 203.613 197.5 202.376 198.594 202.085ZM111.267 384.493C110.492 391.161 107.335 397.279 102.492 401.5C97.6484 405.722 91.5147 407.701 85.4403 407.003C79.366 406.305 73.8483 402.987 70.1013 397.778C66.3544 392.569 64.685 385.897 65.4603 379.229C65.4603 379.229 77.9085 386.233 88.3639 381.861C98.8192 377.489 111.267 384.493 111.267 384.493ZM116.942 402.468C115.402 404.998 113.635 407.253 111.721 409.107C110.556 409.99 109.566 410.831 108.648 411.611C103.835 415.697 100.994 418.109 85.2254 416.297C68.7724 414.406 66.9379 411.948 62.4711 405.962L62.4711 405.962L62.471 405.962C61.84 405.116 61.1564 404.201 60.3717 403.206C54.0321 395.17 54.5089 387.867 55.5723 378.722L62.1162 379.474C60.6014 392.501 65.4995 399.405 65.4995 399.405C65.4995 399.405 69.578 408.291 85.9377 410.171C102.297 412.051 107.317 404.211 107.317 404.211C107.317 404.211 114.016 395.533 115.263 384.805L122.122 385.593C123 385.43 123.902 385.371 124.809 385.421C127.094 385.548 129.285 386.362 131.056 387.743C132.827 389.124 134.084 390.998 134.64 393.087C135.196 395.176 135.022 397.369 134.143 399.339C133.264 401.31 131.728 402.953 129.762 404.025C127.796 405.098 125.505 405.542 123.229 405.292C120.954 405.042 118.815 404.111 117.13 402.637C117.067 402.582 117.004 402.525 116.942 402.468ZM121.696 391.187C122.558 390.718 123.553 390.496 124.559 390.552C125.668 390.613 126.73 391.008 127.589 391.678C128.447 392.348 129.057 393.256 129.326 394.269C129.596 395.282 129.512 396.345 129.086 397.3C128.659 398.256 127.914 399.053 126.961 399.573C126.008 400.093 124.897 400.308 123.794 400.187C122.69 400.066 121.653 399.614 120.836 398.9C120.311 398.44 119.895 397.887 119.609 397.279C120.446 395.327 121.151 393.282 121.696 391.187ZM54.7893 417.458L114.52 424.322C115.644 424.452 116.436 425.586 116.288 426.855C116.141 428.125 115.109 429.049 113.985 428.92L54.2546 422.056C53.13 421.927 52.3381 420.793 52.4857 419.523C52.6333 418.254 53.6647 417.329 54.7893 417.458ZM33.7995 19.3788C33.0241 26.0469 29.8674 32.1646 25.0239 36.3862C20.1804 40.6076 14.0467 42.5871 7.97234 41.8891C1.898 41.191 -3.61966 37.8726 -7.36663 32.664C-11.1136 27.4553 -12.783 20.783 -12.0076 14.1149C-12.0076 14.1149 0.440577 21.1187 10.8959 16.7468C21.3513 12.3749 33.7995 19.3788 33.7995 19.3788ZM39.4738 37.3544C37.9339 39.8843 36.1668 42.1391 34.253 43.9926C33.0879 44.8764 32.0979 45.717 31.1798 46.4965C26.367 50.5831 23.5265 52.9949 7.75738 51.1828C-8.69554 49.2921 -10.5301 46.8338 -14.9969 40.8482L-14.9969 40.8482L-14.997 40.848C-15.628 40.0025 -16.3115 39.0865 -17.0962 38.0918C-23.4358 30.0558 -22.9591 22.7532 -21.8956 13.6077L-15.3518 14.3596C-16.8666 27.3867 -11.9685 34.2913 -11.9685 34.2913C-11.9685 34.2913 -7.88994 43.1766 8.46975 45.0566C24.8294 46.9365 29.8488 39.0968 29.8488 39.0968C29.8488 39.0968 36.5478 30.4186 37.7952 19.6905L44.6545 20.4787C45.5316 20.3157 46.434 20.2566 47.3406 20.3069C49.626 20.4336 51.8168 21.2479 53.5879 22.629C55.3591 24.01 56.616 25.8842 57.1722 27.9732C57.7283 30.0622 57.5541 32.2546 56.6753 34.2251C55.7965 36.1955 54.2599 37.839 52.2938 38.9113C50.3276 39.9836 48.0368 40.4277 45.7613 40.1777C43.4858 39.9277 41.3469 38.9967 39.6623 37.5233C39.5987 37.4676 39.5358 37.4113 39.4738 37.3544ZM44.2278 26.0726C45.0903 25.6039 46.0854 25.3822 47.0915 25.4379C48.1995 25.4994 49.2617 25.8942 50.1205 26.5638C50.9793 27.2335 51.5889 28.1422 51.8585 29.1551C52.1282 30.168 52.0437 31.231 51.6176 32.1865C51.1913 33.1419 50.4463 33.9387 49.4931 34.4586C48.5398 34.9786 47.429 35.1939 46.3257 35.0727C45.2223 34.9515 44.1852 34.5001 43.3685 33.7857C42.8429 33.3261 42.4266 32.7734 42.1414 32.1647C42.9783 30.2125 43.6826 28.1681 44.2278 26.0726ZM-22.6787 52.3445L37.0515 59.2084C38.1761 59.3376 38.9681 60.4716 38.8205 61.7412C38.6728 63.0109 37.6415 63.9354 36.5169 63.8061L-23.2133 56.9422C-24.3379 56.813 -25.1299 55.679 -24.9823 54.4093C-24.8346 53.1397 -23.8033 52.2152 -22.6787 52.3445ZM981.749 397.806C980.972 402.619 978.485 406.956 974.836 409.865C971.186 412.773 966.673 414.014 962.289 413.314C957.905 412.615 954.009 410.032 951.459 406.134C948.908 402.237 947.912 397.343 948.689 392.531C948.689 392.531 957.494 398.008 965.219 395.169C972.944 392.33 981.749 397.806 981.749 397.806ZM985.287 411.027C984.088 412.813 982.734 414.392 981.286 415.676C980.412 416.28 979.667 416.858 978.976 417.395C975.353 420.206 973.215 421.865 961.834 420.049C949.96 418.155 948.708 416.313 945.66 411.829L945.66 411.829L945.66 411.829C945.229 411.195 944.763 410.509 944.226 409.762C939.886 403.731 940.467 398.449 941.532 391.848L946.255 392.602C944.737 402.004 948.068 407.169 948.068 407.169C948.068 407.169 950.741 413.744 962.548 415.628C974.355 417.512 978.249 411.985 978.249 411.985C978.249 411.985 983.387 405.902 984.638 398.159L989.588 398.949C990.23 398.859 990.886 398.845 991.542 398.91C993.196 399.075 994.759 399.735 995.999 400.793C997.24 401.852 998.091 403.251 998.428 404.784C998.764 406.317 998.567 407.902 997.866 409.304C997.165 410.705 995.997 411.848 994.537 412.564C993.076 413.279 991.4 413.528 989.757 413.275C988.114 413.021 986.593 412.278 985.418 411.155C985.374 411.113 985.33 411.07 985.287 411.027ZM989.099 402.994C989.739 402.681 990.468 402.552 991.196 402.624C991.998 402.704 992.756 403.024 993.357 403.538C993.959 404.051 994.372 404.729 994.535 405.473C994.698 406.216 994.602 406.984 994.263 407.664C993.923 408.343 993.356 408.898 992.648 409.245C991.94 409.592 991.127 409.712 990.331 409.589C989.534 409.466 988.796 409.106 988.227 408.562C987.861 408.212 987.576 407.797 987.389 407.347C988.059 405.957 988.636 404.497 989.099 402.994ZM939.718 419.924L982.826 426.803C983.638 426.932 984.176 427.78 984.028 428.697C983.88 429.613 983.102 430.251 982.291 430.121L939.182 423.242C938.37 423.113 937.832 422.265 937.98 421.349C938.128 420.432 938.906 419.795 939.718 419.924ZM1455.1 211.582C1452.76 216.273 1448.81 219.934 1444.13 221.759C1439.45 223.584 1434.42 223.424 1430.15 221.314C1425.88 219.204 1422.71 215.317 1421.35 210.509C1419.98 205.7 1420.53 200.363 1422.88 195.671C1422.88 195.671 1430.15 204.087 1438.99 203.627C1447.83 203.167 1455.1 211.582 1455.1 211.582ZM1454.48 226.27C1452.68 227.722 1450.78 228.912 1448.88 229.77C1447.79 230.112 1446.84 230.469 1445.96 230.8C1441.34 232.534 1438.61 233.557 1427.52 228.08C1415.95 222.365 1415.25 220.078 1413.57 214.51C1413.33 213.723 1413.07 212.871 1412.76 211.934C1410.24 204.368 1412.54 199.133 1415.75 192.699L1420.36 194.972C1415.78 204.136 1417.54 210.493 1417.54 210.493C1417.54 210.493 1418.16 218.088 1429.67 223.77C1441.18 229.453 1446.95 225.018 1446.95 225.018C1446.95 225.018 1454.18 220.409 1457.95 212.862L1462.78 215.244C1463.46 215.355 1464.14 215.549 1464.79 215.824C1466.44 216.518 1467.83 217.692 1468.76 219.172C1469.7 220.651 1470.12 222.358 1469.97 224.037C1469.82 225.717 1469.11 227.281 1467.94 228.496C1466.77 229.712 1465.21 230.514 1463.48 230.784C1461.75 231.054 1459.95 230.778 1458.35 229.996C1456.74 229.214 1455.42 227.968 1454.58 226.443C1454.54 226.386 1454.51 226.328 1454.48 226.27ZM1460.97 219.238C1461.73 219.121 1462.52 219.22 1463.25 219.525C1464.04 219.862 1464.72 220.431 1465.17 221.148C1465.62 221.866 1465.83 222.693 1465.76 223.508C1465.68 224.322 1465.34 225.08 1464.77 225.67C1464.21 226.259 1463.45 226.648 1462.61 226.779C1461.77 226.91 1460.9 226.776 1460.12 226.397C1459.34 226.018 1458.7 225.413 1458.29 224.674C1458.03 224.199 1457.87 223.683 1457.82 223.162C1458.96 221.949 1460.02 220.633 1460.97 219.238ZM1404.87 220.929L1446.89 241.675C1447.68 242.066 1447.96 243.107 1447.51 244C1447.07 244.893 1446.06 245.3 1445.27 244.91L1403.25 224.163C1402.46 223.773 1402.18 222.732 1402.63 221.839C1403.07 220.946 1404.08 220.538 1404.87 220.929ZM1298.45 74.8503C1299.38 80.0052 1298.41 85.2827 1295.75 89.5221C1293.09 93.7613 1288.96 96.6151 1284.26 97.4555C1279.56 98.2958 1274.69 97.0541 1270.71 94.0033C1266.73 90.9525 1263.97 86.3426 1263.03 81.1878C1263.03 81.1878 1273.92 83.6288 1280.74 78.019C1287.56 72.4093 1298.45 74.8503 1298.45 74.8503ZM1306.76 87.0058C1306.19 89.2408 1305.38 91.3213 1304.37 93.1349C1303.7 94.0563 1303.15 94.906 1302.64 95.6942L1302.64 95.6942L1302.64 95.6943C1299.97 99.8259 1298.4 102.264 1286.21 104.446C1273.49 106.722 1271.56 105.297 1266.87 101.827C1266.2 101.337 1265.48 100.806 1264.67 100.239C1258.11 95.6576 1256.81 90.0957 1255.53 83.0257L1260.59 82.1203C1262.41 92.191 1267.64 96.2506 1267.64 96.2506C1267.64 96.2506 1272.7 101.973 1285.35 99.71C1298 97.4467 1299.97 90.4652 1299.97 90.4652C1299.97 90.4652 1303 82.4808 1301.5 74.1874L1306.8 73.2384C1307.42 72.9199 1308.08 72.6735 1308.77 72.5078C1310.51 72.0901 1312.33 72.2073 1313.96 72.8418C1315.6 73.4763 1316.96 74.5945 1317.85 76.0303C1318.74 77.4661 1319.11 79.1429 1318.9 80.8118C1318.69 82.4807 1317.92 84.0529 1316.69 85.2946C1315.47 86.5364 1313.86 87.3818 1312.1 87.7052C1310.34 88.0286 1308.53 87.8127 1306.94 87.0897C1306.88 87.0624 1306.82 87.0344 1306.76 87.0058ZM1307.75 77.5126C1308.29 76.9691 1308.98 76.5804 1309.75 76.3965C1310.59 76.194 1311.47 76.2508 1312.27 76.5585C1313.06 76.8661 1313.72 77.4083 1314.15 78.1045C1314.58 78.8006 1314.76 79.6137 1314.66 80.4229C1314.56 81.2321 1314.18 81.9944 1313.59 82.5964C1312.99 83.1986 1312.21 83.6084 1311.36 83.7653C1310.51 83.9221 1309.63 83.8174 1308.86 83.4668C1308.36 83.2413 1307.93 82.9218 1307.58 82.5311C1307.76 80.8852 1307.82 79.2001 1307.75 77.5126ZM1263.74 112.137L1309.91 103.873C1310.78 103.718 1311.63 104.387 1311.81 105.369C1311.98 106.35 1311.42 107.272 1310.55 107.428L1264.38 115.692C1263.51 115.847 1262.66 115.178 1262.48 114.196C1262.31 113.215 1262.87 112.293 1263.74 112.137ZM1356.25 385.331C1356.04 390.565 1353.94 395.507 1350.42 399.071C1346.9 402.636 1342.24 404.53 1337.47 404.337C1332.7 404.144 1328.22 401.881 1325 398.044C1321.78 394.207 1320.09 389.111 1320.3 383.878C1320.3 383.878 1330.4 388.61 1338.28 384.604C1346.16 380.599 1356.25 385.331 1356.25 385.331ZM1361.72 398.991C1360.67 401.049 1359.42 402.905 1358.04 404.458C1357.19 405.213 1356.47 405.924 1355.8 406.583C1352.29 410.041 1350.22 412.081 1337.85 411.581C1324.93 411.059 1323.36 409.252 1319.54 404.852C1319 404.231 1318.41 403.557 1317.74 402.829C1312.34 396.941 1312.29 391.231 1312.58 384.054L1317.71 384.261C1317.3 394.485 1321.51 399.575 1321.51 399.575C1321.51 399.575 1325.2 406.254 1338.04 406.773C1350.88 407.292 1354.33 400.902 1354.33 400.902C1354.33 400.902 1359.04 393.763 1359.38 385.343L1364.76 385.561C1365.44 385.383 1366.14 385.285 1366.84 385.272C1368.63 385.239 1370.38 385.746 1371.84 386.719C1373.3 387.691 1374.39 389.077 1374.94 390.67C1375.5 392.264 1375.49 393.98 1374.92 395.564C1374.35 397.148 1373.25 398.515 1371.78 399.463C1370.32 400.411 1368.56 400.889 1366.78 400.825C1364.99 400.762 1363.27 400.161 1361.87 399.112C1361.82 399.072 1361.77 399.032 1361.72 398.991ZM1364.76 389.938C1365.4 389.524 1366.16 389.294 1366.95 389.279C1367.82 389.263 1368.67 389.509 1369.37 389.98C1370.08 390.452 1370.61 391.124 1370.88 391.897C1371.15 392.669 1371.14 393.501 1370.87 394.269C1370.59 395.037 1370.06 395.7 1369.35 396.16C1368.63 396.619 1367.78 396.851 1366.92 396.82C1366.05 396.79 1365.22 396.498 1364.54 395.99C1364.1 395.662 1363.75 395.256 1363.49 394.799C1364.03 393.232 1364.46 391.6 1364.76 389.938ZM1314.23 414.241L1361.11 416.136C1361.99 416.172 1362.67 417.008 1362.63 418.005C1362.59 419.001 1361.84 419.78 1360.96 419.745L1314.08 417.849C1313.2 417.814 1312.52 416.977 1312.56 415.981C1312.6 414.984 1313.35 414.205 1314.23 414.241ZM645.054 375.896C643.666 383.458 639.597 390.213 633.745 394.676C627.892 399.139 620.734 400.945 613.845 399.694C606.957 398.444 600.902 394.242 597.013 388.011C593.124 381.779 591.719 374.031 593.107 366.469C593.107 366.469 606.804 375.399 619.081 371.182C631.358 366.965 645.054 375.896 645.054 375.896ZM650.183 396.859C648.233 399.635 646.044 402.08 643.717 404.056C642.319 404.979 641.125 405.866 640.017 406.688C634.209 410.999 630.782 413.544 612.899 410.298C594.241 406.912 592.33 403.967 587.677 396.794C587.019 395.781 586.307 394.683 585.486 393.488C578.847 383.833 579.942 375.524 581.847 365.153L589.268 366.499C586.555 381.273 591.631 389.527 591.631 389.527C591.631 389.527 595.622 399.984 614.175 403.351C632.727 406.718 639.054 398.133 639.054 398.133C639.054 398.133 647.363 388.716 649.597 376.55L657.375 377.961C658.39 377.84 659.425 377.84 660.458 377.965C663.06 378.28 665.502 379.374 667.421 381.084C669.341 382.794 670.636 385.029 671.114 387.457C671.592 389.886 671.228 392.378 670.075 394.565C668.923 396.751 667.043 398.514 664.715 399.593C662.388 400.672 659.737 401.009 657.155 400.554C654.574 400.098 652.2 398.875 650.386 397.066C650.318 396.998 650.25 396.929 650.183 396.859ZM656.466 384.322C657.487 383.85 658.641 383.671 659.786 383.81C661.048 383.962 662.232 384.493 663.163 385.322C664.094 386.151 664.722 387.235 664.953 388.412C665.185 389.59 665.008 390.798 664.45 391.858C663.89 392.918 662.979 393.773 661.851 394.296C660.722 394.82 659.437 394.983 658.185 394.762C656.933 394.541 655.782 393.948 654.903 393.071C654.337 392.507 653.903 391.844 653.623 391.128C654.726 388.959 655.685 386.675 656.466 384.322ZM578.032 409.359L645.768 421.651C647.044 421.882 647.863 423.237 647.599 424.677C647.334 426.117 646.086 427.097 644.811 426.865L577.075 414.573C575.8 414.341 574.98 412.987 575.244 411.547C575.509 410.107 576.757 409.127 578.032 409.359Z" fill="url(#paint0_linear_18_23)"/>
</g>
<defs>
<linearGradient id="paint0_linear_18_23" x1="722.469" y1="0" x2="722.469" y2="430.127" gradientUnits="userSpaceOnUse">
<stop stop-color="white" stop-opacity="0.7"/>
<stop offset="1" stop-color="white" stop-opacity="0.4"/>
</linearGradient>
</defs>
</svg>
